<?xml version="1.0" encoding="UTF-8" standalone="no"?>
<!-- Created with Inkscape (http://www.inkscape.org/) -->

<svg
   xmlns:dc="http://purl.org/dc/elements/1.1/"
   xmlns:cc="http://creativecommons.org/ns#"
   xmlns:rdf="http://www.w3.org/1999/02/22-rdf-syntax-ns#"
   xmlns:svg="http://www.w3.org/2000/svg"
   xmlns="http://www.w3.org/2000/svg"
   version="1.1"
   width="63.957314"
   height="64.158852"
   id="svg3173">
  <metadata
     id="metadata3183">
    <rdf:RDF>
      <cc:Work
         rdf:about="">
        <dc:format>image/svg+xml</dc:format>
        <dc:type
           rdf:resource="http://purl.org/dc/dcmitype/StillImage" />
        <dc:title></dc:title>
      </cc:Work>
    </rdf:RDF>
  </metadata>
  <defs
     id="defs3181" />
  <g
     transform="matrix(0.14083291,0,0,0.14083291,0.1,0.1015575)"
     id="netbeetleLogo">
    <path
       d="m 351.255,224.574 c 17.363,15.181 35.476,29.594 52.996,43.53 l 16.833,13.436 31.632,-37.884 -17.016,-13.581 c -17.067,-13.582 -34.728,-27.626 -51.213,-42.051 -2.227,-1.941 -4.577,-4.177 -7.065,-6.542 -11.273,-10.698 -25.299,-24.014 -46.341,-28.844 -4.941,-1.143 -9.769,-1.241 -14.415,-0.661 -0.983,-1.258 -1.887,-2.412 -2.591,-3.293 -0.116,-2.39 -0.453,-4.8 -1.029,-7.224 9.884,-14.757 20.192,-29.316 31.848,-38.647 9.563,-7.633 22.637,-13.158 36.488,-19.007 9.404,-3.971 19.12,-8.081 28.499,-13.17 L 385.696,27.795 c -7.213,3.916 -15.396,7.375 -24.062,11.032 -16.373,6.921 -33.311,14.069 -48.285,26.025 -11.544,9.235 -21.252,20.648 -29.908,32.368 -1.131,-1.025 -2.095,-1.771 -3.113,-2.612 3.654,-2.961 11.928,-10.734 12.379,-20.647 0.243,-5.403 -1.924,-10.359 -6.264,-14.349 -2.967,-2.7 -5.81,-4.544 -8.611,-5.742 -0.366,-1.997 -0.81,-4.002 -1.394,-6.016 3.699,0.563 7.405,1.139 11.041,1.676 l 14.493,2.186 5.864,0.882 c 0.024,-0.008 1.59,-5.618 1.59,-5.618 l 2.195,-7.829 c 2.162,-7.739 4.41,-15.742 6.463,-23.69 l -12.912,-3.208 c -2.019,7.821 -4.245,15.759 -6.393,23.438 l -0.627,2.237 -8.674,-1.305 C 283.294,35.706 277.011,34.763 270.723,33.76 260.962,15.112 243.503,-0.486 225.146,0 212.15,0.341 198.481,8.311 188.592,21.315 c -2.892,3.801 -5.248,7.832 -7.138,11.937 l -20.295,2.243 -8.799,0.957 -1.362,-3.661 -8.492,-22.927 -12.519,4.437 8.5,22.956 3.149,8.482 1.789,4.821 c 0.004,0.003 5.206,-0.563 5.206,-0.563 l 13.989,-1.523 14.518,-1.604 c -0.672,3.882 -0.871,7.696 -0.52,11.323 -1.991,1.157 -4.013,2.676 -6.094,4.578 -6.068,5.564 -6.803,11.592 -6.351,15.666 0.771,6.938 5.449,13.205 10.983,18.017 -2.748,1.595 -5.467,3.195 -7.924,4.85 C 134.693,73.077 100.91,44.609 63.729,20.47 l -27.56,40.836 c 36.432,23.649 70.468,52.745 103.392,81.38 0.035,1.634 -0.042,3.259 0.231,4.907 0.057,0.353 0.19,0.72 0.266,1.075 -2.457,3.072 -6.438,8.123 -8.2,10.769 -15.637,-3.231 -41.948,-6.08 -59.35,14.663 -13.614,16.242 -28.606,32.24 -43.1,47.709 C 19.712,232.153 9.692,242.85 0,253.69 l 37.538,32.286 c 9.308,-10.414 19.131,-20.895 28.63,-31.033 14.658,-15.639 29.788,-31.83 44.025,-48.738 1.009,-0.156 2.649,-0.169 5.288,0.155 -1.518,13.174 2.498,27.164 6.309,40.034 1.833,6.201 3.566,12.048 4.549,17.382 0.152,0.837 0.286,1.592 0.385,2.316 1.224,8.531 2.155,17.164 3.018,25.756 -2.338,0.315 -4.612,0.58 -6.953,0.912 -35.115,5.027 -47.32,23.638 -51.377,38.363 -6.234,22.671 -13.829,45.965 -21.167,68.492 l -12.91,40.322 47.779,14.199 12.687,-39.617 c 7.475,-22.926 15.194,-46.647 21.701,-70.266 0.731,-0.502 3.409,-2.014 10.484,-3.03 1.583,-0.229 3.2,-0.407 4.8,-0.63 4.182,28.97 13.809,56.956 45.086,73.79 43.076,23.167 86.137,21.671 115.194,-3.985 25.888,-22.859 29.299,-54.933 30.084,-85.009 1.938,-0.146 4.478,-0.298 6.583,-0.307 3.576,6.519 5.743,16.169 7.831,25.605 0.834,3.805 1.704,7.747 2.697,11.631 7.883,30.7 17.069,60.664 25.809,88.729 l 47.745,-14.301 c -8.554,-27.474 -17.54,-56.775 -25.126,-86.35 -0.789,-3.098 -1.537,-6.485 -2.332,-10.079 -3.382,-15.331 -7.601,-34.418 -20.111,-49.581 -11.449,-13.882 -28.727,-15.048 -41.221,-14.501 0.507,-4.909 1.142,-9.757 2.1,-14.569 0.983,-4.963 2.323,-9.817 3.749,-14.959 2.661,-9.64 5.43,-19.614 5.62,-30.272 0.025,-1.379 -0.183,-2.582 -0.226,-3.908 1.469,1.348 2.939,2.726 4.429,4.144 2.74,2.602 5.573,5.291 8.558,7.903 z"
       id="netbeetleLogoOutline" />
    <path
       d="m 179.61,72.313 c 3.092,-2.833 5.01,-3.574 5.882,-3.767 l 6.77,-1.489 -1.8,-6.573 c -2.458,-8.978 0.918,-20.996 8.801,-31.359 7.477,-9.828 17.287,-15.835 26.242,-16.071 18.451,-0.49 37.589,25.577 39.738,46.465 l 0.538,5.273 5.367,0.567 c 0.695,0.073 2.688,0.588 6.23,3.818 1.878,1.728 2.068,3.153 2.026,4.202 -0.156,3.345 -3.428,8.025 -8.141,11.643 -6.752,5.159 -16.052,7.931 -29.284,8.729 -3.478,0.21 -7.134,0.545 -10.663,0.875 -14.871,1.377 -30.246,2.803 -41.768,-3.908 -5.506,-3.2 -11.626,-9.088 -12.141,-13.69 -0.125,-1.139 0.009,-2.705 2.203,-4.715 z"
       id="netbeetleLogoHead"
       style="fill:#ffffff" />
    <path
       d="m 322.711,187.618 c -1.325,-0.303 -3.202,0.137 -5.288,0.939 5.637,6.161 8.594,14.911 8.594,26.276 0,0.457 -0.005,0.917 -0.019,1.382 -0.166,9.139 -2.602,17.958 -5.185,27.287 l -3.947,15.813 c -2.011,10.082 -2.873,20.037 -3.36,30.682 1.534,-0.067 2.994,-0.008 4.526,-0.109 l 2.878,-0.215 c 10.311,-0.811 27.559,-2.176 36.999,9.267 10.525,12.756 14.204,29.429 17.451,44.138 0.816,3.704 1.592,7.194 2.437,10.505 6.705,26.151 14.614,52.382 21.461,74.591 l -22.342,6.622 c -6.923,-22.458 -14.928,-49.013 -21.756,-75.642 -0.938,-3.677 -1.79,-7.518 -2.61,-11.229 -2.826,-12.798 -5.75,-26.04 -12.779,-34.564 -2.246,-2.023 -13.337,-1.152 -16.98,-0.87 l -3.229,0.248 c -2.254,0.146 -4.461,0.205 -6.68,0.289 l -0.008,0.572 c -0.472,32.167 -0.956,65.437 -26.17,87.697 -24.923,22.013 -62.621,22.892 -100.827,2.346 -28.063,-15.102 -36.245,-40.502 -39.896,-73.993 l -0.354,-3.627 c -5.808,0.724 -11.735,1.469 -17.558,2.294 -18.678,2.672 -20.579,9.583 -21.294,12.178 -6.448,23.447 -14.168,47.142 -21.633,70.053 l -8.833,27.33 -22.281,-6.811 8.882,-27.481 c 7.383,-22.672 15.021,-46.111 21.332,-69.057 4.394,-15.939 18.003,-25.646 40.459,-28.856 6.252,-0.896 12.528,-1.681 18.654,-2.448 -1.015,-9.258 -4.247,-38.712 -4.247,-38.722 l -0.477,-2.904 -4.846,-18.609 c -4.937,-16.686 -9.874,-33.858 -1.98,-46.661 -0.67,-0.162 -1.352,-0.35 -2.022,-0.508 -12.171,-2.862 -24.108,-4.705 -28.982,1.106 -14.233,16.984 -29.556,33.336 -44.372,49.147 L 36.29,267.73 18.925,252.431 39.243,230.582 c 14.602,-15.584 29.706,-31.703 43.533,-48.2 14.824,-17.669 40.233,-11.698 52.444,-8.827 1.623,0.38 3.232,0.816 4.85,1.212 0.375,-3.126 0.984,-6.045 2.179,-8.58 l 9.544,-12.329 1.692,-2.71 c 0,0 -1.367,-5.538 -1.367,-5.551 -0.527,-3.113 -0.278,-6.117 0.462,-9.014 C 121.193,109.26 88.764,81.214 54.167,57.54 L 67.52,38.768 c 34.903,23.877 67.177,51.66 98.406,78.837 6.376,-5.453 14.009,-10.044 20.964,-13.639 14.367,6.471 30.911,5.03 45.682,3.66 3.577,-0.333 6.962,-0.648 10.225,-0.841 7.222,-0.435 16.825,-1.558 26.021,-5.426 0.602,0.418 1.211,0.773 1.801,1.221 4.724,3.592 10.038,8.737 14.929,14.547 10.526,-15.487 21.825,-30.662 36.197,-42.164 13.537,-10.803 29.597,-17.59 45.133,-24.156 4.94,-2.085 9.614,-4.061 14.223,-6.165 l 9.848,20.759 c -4.914,2.24 -9.959,4.368 -14.831,6.429 -14.719,6.22 -28.62,12.091 -39.628,20.88 -14.362,11.493 -26.115,28.9 -37.44,45.909 1.601,4.015 2.626,7.931 2.626,11.506 0,0.239 0,0.478 -0.008,0.716 l 0.018,2.142 1.243,1.621 c 0,0 8.656,11.246 8.734,11.246 0.063,0.124 0.087,0.27 0.149,0.393 5.235,-1.592 10.717,-2.184 16.239,-0.908 17.461,4.01 29.502,15.435 40.122,25.517 2.595,2.46 5.04,4.782 7.464,6.907 16.723,14.621 34.495,28.764 51.686,42.436 l 6.532,5.205 -14.72,17.766 -6.523,-5.193 c -17.392,-13.84 -35.381,-28.153 -52.511,-43.132 -2.781,-2.432 -5.515,-5.029 -8.16,-7.538 -9.274,-8.802 -18.024,-17.113 -29.23,-19.685 z"
       id="netbeetleLogoBody"
       style="fill:#ffcc33" />
  </g>
</svg>
