<?xml version="1.0" encoding="UTF-8" standalone="no"?>
<!-- Created with Inkscape (http://www.inkscape.org/) -->

<svg
   xmlns:dc="http://purl.org/dc/elements/1.1/"
   xmlns:cc="http://creativecommons.org/ns#"
   xmlns:rdf="http://www.w3.org/1999/02/22-rdf-syntax-ns#"
   xmlns:svg="http://www.w3.org/2000/svg"
   xmlns="http://www.w3.org/2000/svg"
   version="1.1"
   width="262.24756"
   height="36.696434"
   id="svg2">
  <metadata
     id="metadata26">
    <rdf:RDF>
      <cc:Work
         rdf:about="">
        <dc:format>image/svg+xml</dc:format>
        <dc:type
           rdf:resource="http://purl.org/dc/dcmitype/StillImage" />
        <dc:title></dc:title>
      </cc:Work>
    </rdf:RDF>
  </metadata>
  <defs
     id="defs24" />
  <g
     transform="matrix(0.5771191,0,0,0.5771191,-4.3331526,-265.52541)"
     id="netbeetleText">
    <path
       d="m 36.243,486.32 0.096,-0.539 c -7.25,-1.252 -15.306,-0.504 -22.425,1.975 0.055,-0.629 0.114,-1.266 0.181,-1.916 l -5.914,-0.621 c -1.354,12.982 0.019,24.744 4.435,38.162 l 5.644,-1.863 c -3.211,-9.75 -4.69,-18.287 -4.638,-27.244 5.03,-2.154 10.774,-3.234 16.33,-3.122 -0.426,10.719 1.116,20.89 4.863,32.229 l 5.648,-1.863 c -4.15,-12.577 -5.415,-23.139 -4.22,-35.198 z"
       id="netbeetleTextN" />
    <path
       d="m 46.991,487.497 0.011,0.029 c -3.311,12.279 -2.456,21.927 2.463,27.896 4.357,5.252 11.628,7.553 21.604,6.813 l -0.438,-5.925 c -7.948,0.592 -13.518,-0.991 -16.576,-4.683 -0.781,-0.947 -1.373,-2.004 -1.834,-3.159 9.682,-0.776 26.752,-3.551 28.113,-21.748 l 0.011,-0.044 c -10.647,-2.87 -22.18,-2.59 -33.354,0.821 m 3.998,15.091 c -0.192,-3.374 0.271,-6.961 0.973,-10.283 7.179,-1.746 14.433,-2.078 21.385,-1.006 -2.851,7.797 -11.04,10.363 -22.358,11.289 z"
       id="netbeetleTextE1" />
    <path
       d="m 104.627,474.256 -5.832,-1.162 c -0.792,3.98 -1.437,7.887 -1.857,11.814 -3.502,0.281 -7.035,0.865 -10.571,1.768 l 1.48,5.762 c 2.892,-0.738 5.774,-1.234 8.643,-1.516 -0.413,9.868 0.803,20.18 4.849,32.459 l 5.644,-1.863 c -3.879,-11.777 -5.019,-21.423 -4.544,-30.848 3.314,0.029 6.594,0.369 9.823,1.029 l 1.191,-5.83 c -3.455,-0.703 -6.969,-1.08 -10.516,-1.154 0.403,-3.432 0.973,-6.887 1.69,-10.459 z"
       id="netbeetleTextT1" />
    <path
       d="m 126.395,486.047 c 0.78,-7.775 2.511,-15.594 4.663,-24.366 l -5.766,-1.42 c -5.463,22.235 -8.44,38.644 -0.366,63.12 l 0.026,0.119 c 17.369,-4.823 27.71,-17.88 29.101,-36.787 l 0.018,-0.037 c -8.847,-2.39 -18.319,-2.59 -27.676,-0.629 m 2.477,29.744 c -2.286,-8.551 -3.096,-16.148 -2.88,-23.56 7.208,-1.731 14.498,-2.005 21.466,-0.881 -2.152,11.482 -8.581,19.929 -18.586,24.441 z"
       id="netbeetleTextB" />
    <path
       d="m 161.747,487.497 0.01,0.029 c -3.318,12.279 -2.459,21.927 2.464,27.896 4.357,5.252 11.621,7.553 21.6,6.813 l -0.436,-5.925 c -7.952,0.592 -13.53,-0.991 -16.579,-4.683 -0.775,-0.947 -1.375,-2.004 -1.841,-3.159 9.694,-0.776 26.759,-3.551 28.121,-21.748 l 0.006,-0.044 c -10.643,-2.87 -22.176,-2.59 -33.345,0.821 m 3.994,15.091 c -0.196,-3.374 0.269,-6.961 0.972,-10.283 7.176,-1.746 14.425,-2.078 21.387,-1.006 -2.848,7.797 -11.041,10.363 -22.359,11.289 z"
       id="netbeetleTextE2" />
    <path
       d="m 201.581,487.497 0.008,0.029 c -3.308,12.279 -2.459,21.927 2.471,27.896 4.349,5.252 11.621,7.553 21.6,6.813 l -0.439,-5.925 c -7.954,0.592 -13.52,-0.991 -16.575,-4.683 -0.784,-0.947 -1.379,-2.004 -1.838,-3.159 9.688,-0.776 26.757,-3.551 28.11,-21.748 l 0.021,-0.044 c -10.652,-2.87 -22.191,-2.59 -33.358,0.821 m 4.002,15.091 c -0.201,-3.374 0.259,-6.961 0.968,-10.283 7.184,-1.746 14.436,-2.078 21.39,-1.006 -2.862,7.797 -11.051,10.363 -22.358,11.289 z"
       id="netbeetleTextE3" />
    <path
       d="m 259.209,474.256 -5.836,-1.162 c -0.791,3.98 -1.443,7.887 -1.85,11.814 -3.506,0.281 -7.043,0.865 -10.557,1.768 l 1.465,5.762 c 2.887,-0.738 5.777,-1.234 8.641,-1.516 -0.414,9.868 0.799,20.18 4.852,32.459 l 5.645,-1.863 c -3.883,-11.777 -5.014,-21.423 -4.549,-30.848 3.314,0.029 6.6,0.369 9.824,1.029 l 1.205,-5.83 c -3.469,-0.703 -6.975,-1.08 -10.525,-1.154 0.398,-3.432 0.976,-6.887 1.685,-10.459 z"
       id="netbeetleTextT2" />
    <path
       d="m 279.28,460.261 c -5.469,22.235 -8.434,38.644 -0.371,63.12 l 5.652,-1.863 c -7.568,-22.969 -4.721,-38.607 0.488,-59.837 l -5.769,-1.42 z"
       id="netbeetleTextL" />
    <path
       d="m 288.985,487.497 v 0.029 c -3.307,12.279 -2.457,21.927 2.471,27.896 4.35,5.252 11.629,7.553 21.615,6.813 l -0.461,-5.925 c -7.943,0.592 -13.52,-0.991 -16.568,-4.683 -0.785,-0.947 -1.375,-2.004 -1.836,-3.159 9.691,-0.776 26.75,-3.558 28.119,-21.748 l 0.014,-0.044 c -10.659,-2.87 -22.192,-2.59 -33.354,0.821 m 3.994,15.091 c -0.193,-3.374 0.268,-6.961 0.977,-10.283 7.176,-1.746 14.424,-2.078 21.371,-1.006 -2.848,7.797 -11.03,10.363 -22.348,11.289 z"
       id="netbeetleTextE4" />
    <path
       d="m 332.274,522.464 h -9.439 v -9.195 h 9.439 v 9.195 z"
       id="netbeetleTextPeriod" />
    <path
       d="m 369.222,510.25 c -0.311,3.463 -3.031,13.095 -15.29,13.095 -12.59,0 -15.482,-9.632 -15.482,-16.681 0,-10.822 4.721,-18.568 16.047,-18.568 5.286,0 13.972,2.39 14.784,12.85 h -8.936 c -0.369,-2.213 -1.759,-5.674 -5.849,-5.422 -5.549,0 -6.992,5.54 -6.992,9.689 0,3.655 0.127,10.889 6.799,10.889 4.461,0 5.983,-4.275 5.983,-5.852 h 8.936 z"
       id="netbeetleTextC" />
    <path
       d="m 398.611,505.717 c 0,4.283 -1.264,10.201 -8.055,10.201 -6.799,0 -8.063,-5.918 -8.063,-10.201 0,-4.283 1.264,-10.193 8.063,-10.193 6.791,-10e-4 8.055,5.91 8.055,10.193 m 9.07,0 c 0,-12.08 -8.129,-17.621 -17.125,-17.621 -9.002,0 -17.117,5.541 -17.117,17.621 0,12.087 8.115,17.628 17.117,17.628 8.996,0 17.125,-5.541 17.125,-17.628 z"
       id="netbeetleTextO" />
    <path
       d="m 461.742,522.464 h -8.824 v -20.335 c 0,-4.971 -2.191,-6.605 -4.779,-6.605 -4.402,0 -5.977,2.892 -5.977,6.863 v 20.077 h -8.826 V 502.32 c 0,-2.833 0,-6.797 -5.268,-6.797 -4.156,0 -5.488,2.892 -5.488,6.546 v 20.395 h -8.803 v -33.487 h 8.434 v 4.911 h 0.133 c 1.131,-2.204 3.58,-5.792 9.482,-5.792 4.854,0 7.059,1.76 9.336,5.349 1.125,-1.635 3.572,-5.349 8.936,-5.349 6.547,0 11.645,3.84 11.645,11.207 v 23.161 z"
       id="netbeetleTextM" />
  </g>
</svg>
